<svg xmlns="http://www.w3.org/2000/svg" width="24" height="24" viewBox="0 0 36 36"><path fill="currentColor" stroke="currentColor" d="M18 6.42a1 1 0 0 0 1-1V1.91a1 1 0 0 0-2 0v3.51a1 1 0 0 0 1 1m0 23.16a1 1 0 0 0-1 1v3.51a1 1 0 0 0 2 0v-3.51a1 1 0 0 0-1-1M8.4 9.81A1 1 0 0 0 9.81 8.4L7.33 5.92a1 1 0 0 0-1.41 1.41Zm19.2 16.38a1 1 0 0 0-1.41 1.41l2.48 2.48a1 1 0 0 0 1.41-1.41ZM6.42 18a1 1 0 0 0-1-1H1.91a1 1 0 0 0 0 2h3.51a1 1 0 0 0 1-1m27.67-1h-3.51a1 1 0 0 0 0 2h3.51a1 1 0 0 0 0-2M8.4 26.19l-2.48 2.48a1 1 0 0 0 1.41 1.41l2.48-2.48a1 1 0 0 0-1.41-1.41M27.6 9.81l2.48-2.48a1 1 0 0 0-1.41-1.41L26.19 8.4a1 1 0 0 0 1.41 1.41"/><circle cx="18" cy="18" r="10" fill="currentColor" stroke="currentColor"/><path fill="none" d="M0 0h36v36H0z"/></svg>